#!OML:ASF I:\Actors\actors\Patient Classification 2\Patient 1\Session 1\actor1.ASF
:FULLY-SPECIFIED
:DEGREES
537
root -0.382273 18.7174 5.60037 2.73628 -1.9876 -1.56539
lowerback 4.22758 2.00701 -3.93829
upperback -2.21828 2.46582 0.652027
thorax -4.87013 1.36118 2.67401
lowerneck -14.3049 -3.29731 -2.42746
upperneck 10.4021 -4.7231 5.59928
head 5.67843 -1.97952 1.7326
rclavicle -6.33471e-015 5.96354e-016
rhumerus 2.65209 8.72018 -51.7678
rradius 100.645
rwrist -30.434
rhand -16.7982 -51.7175
rfingers 7.12502
rthumb 9.4301 -81.4865
lclavicle -6.33471e-015 5.96354e-016
lhumerus 11.6821 -7.44428 50.4191
lradius 92.5761
lwrist 52.046
lhand -19.8553 -17.9882
lfingers 7.12502
lthumb 6.47947 11.8927
rfemur 0 0 0
rtibia 0
rfoot 0 0
rtoes 0
lfemur -6.01226 -4.42557 -13.665
ltibia 22.7218
lfoot -24.2281 16.2742
ltoes -54.0444
538
root -0.38548 18.7171 5.59967 2.72779 -1.99292 -1.5807
lowerback 4.22542 2.01041 -3.92264
upperback -2.20681 2.47183 0.657518
thorax -4.85687 1.36334 2.6707
lowerneck -14.2774 -3.32819 -2.47493
upperneck 10.3466 -4.75383 5.60696
head 5.65896 -1.99719 1.74029
rclavicle 2.4553e-015 3.97569e-016
rhumerus 2.60498 8.60613 -51.6099
rradius 100.598
rwrist -30.3643
rhand -16.7017 -51.7654
rfingers 7.12502
rthumb 9.52315 -81.5302
lclavicle 2.4553e-015 3.97569e-016
lhumerus 11.6886 -7.51421 50.583
lradius 92.7042
lwrist 52.0245
lhand -20.0291 -17.9574
lfingers 7.12502
lthumb 6.31171 11.9285
rfemur 0 0 0
rtibia 0
rfoot 0 0
rtoes 0
lfemur -6.00422 -4.4011 -13.6356
ltibia 22.7203
lfoot -24.1939 16.286
ltoes -54.1355
539
root -0.389251 18.717 5.59904 2.72573 -2.02057 -1.6004
lowerback 4.23913 2.02208 -3.90898
upperback -2.21154 2.48789 0.662668
thorax -4.87047 1.37126 2.66638
lowerneck -14.2532 -3.35001 -2.54281
upperneck 10.3222 -4.77171 5.62809
head 5.65008 -2.00788 1.75661
rclavicle 6.32694e-015 1.19271e-015
rhumerus 2.54519 8.48463 -51.4529
rradius 100.529
rwrist -30.3528
rhand -16.8316 -51.7511
rfingers 7.12502
rthumb 9.39788 -81.5216
lclavicle 6.32694e-015 1.19271e-015
lhumerus 11.6737 -7.61456 50.7169
lradius 92.8447
lwrist 52.107
lhand -20.1654 -17.9568
lfingers 7.12502
lthumb 6.18015 11.933
rfemur 0 0 0
rtibia 0
rfoot 0 0
rtoes 0
lfemur -5.99169 -4.38603 -13.6007
ltibia 22.7149
lfoot -24.1705 16.3199
ltoes -54.1205
540
root -0.393717 18.7172 5.59747 2.74165 -2.04079 -1.61941
lowerback 4.23843 2.03009 -3.9187
upperback -2.20918 2.49852 0.673067
thorax -4.86942 1.37699 2.68173
lowerneck -14.317 -3.37013 -2.59827
upperneck 10.3541 -4.79103 5.64633
head 5.67333 -2.01653 1.76862
rclavicle -2.19176e-014 -2.18663e-015
rhumerus 2.50215 8.35389 -51.2728
rradius 100.461
rwrist -30.4318
rhand -16.8085 -51.5871
rfingers 7.12502
rthumb 9.42016 -81.3565
lclavicle -2.19176e-014 -2.18663e-015
lhumerus 11.6713 -7.76405 50.7546
lradius 93.0043
lwrist 52.2722
lhand -20.3236 -17.9244
lfingers 7.12502
lthumb 6.02736 11.9699
rfemur 0 0 0
rtibia 0
rfoot 0 0
rtoes 0
lfemur -5.99679 -4.41965 -13.5657
ltibia 22.7044
lfoot -24.2006 16.3415
ltoes -54.1019
541
root -0.397512 18.7179 5.59516 2.75324 -2.04347 -1.63947
lowerback 4.25614 2.03358 -3.92914
upperback -2.21194 2.50249 0.688853
thorax -4.88395 1.37988 2.70298
lowerneck -14.4013 -3.38797 -2.65519
upperneck 10.4257 -4.80916 5.6681
head 5.71259 -2.0234 1.78173
rclavicle 2.02496e-014 8.94531e-015
rhumerus 2.43646 8.22544 -51.0846
rradius 100.361
rwrist -30.4549
rhand -16.6167 -51.4193
rfingers 7.12502
rthumb 9.60514 -81.1803
lclavicle 2.02496e-014 8.94531e-015
lhumerus 11.6652 -7.92764 50.79
lradius 93.1618
lwrist 52.3586
lhand -20.5808 -17.9242
lfingers 7.12502
lthumb 5.77907 11.977
rfemur 0 0 0
rtibia 0
rfoot 0 0
rtoes 0
lfemur -6.00598 -4.45937 -13.531
ltibia 22.6991
lfoot -24.2473 16.342
ltoes -54.0861
542
root -0.400091 18.7188 5.59378 2.7633 -2.03957 -1.63979
lowerback 4.27178 2.04058 -3.93162
upperback -2.22936 2.51038 0.679494
thorax -4.9114 1.38446 2.69304
lowerneck -14.4017 -3.40396 -2.65117
upperneck 10.446 -4.82957 5.64608
head 5.71921 -2.0345 1.77211
rclavicle 4.96496e-015 -9.14409e-015
rhumerus 2.315 8.06777 -50.9625
rradius 100.242
rwrist -30.415
rhand -16.5734 -51.2698
rfingers 7.12502
rthumb 9.64693 -81.0289
lclavicle 4.96496e-015 -9.14409e-015
lhumerus 11.6699 -8.07112 50.9221
lradius 93.3094
lwrist 52.3276
lhand -20.7842 -17.9915
lfingers 7.12502
lthumb 5.58266 11.9149
rfemur 0 0 0
rtibia 0
rfoot 0 0
rtoes 0
lfemur -6.01232 -4.506 -13.5242
ltibia 22.692
lfoot -24.2883 16.3466
ltoes -54.0562
543
root -0.402655 18.7189 5.59364 2.78485 -2.04611 -1.62369
lowerback 4.24095 2.04807 -3.94431
upperback -2.23592 2.51975 0.65684
thorax -4.90099 1.38904 2.67665
lowerneck -14.354 -3.40664 -2.6427
upperneck 10.3907 -4.83446 5.65821
head 5.69422 -2.03733 1.77487
rclavicle 9.1472e-015 -3.37934e-015
rhumerus 2.17622 7.89797 -50.8552
rradius 100.147
rwrist -30.3851
rhand -16.7523 -51.1746
rfingers 7.12502
rthumb 9.47431 -80.9416
lclavicle 9.1472e-015 -3.37934e-015
lhumerus 11.6691 -8.1894 51.0799
lradius 93.4986
lwrist 52.3235
lhand -20.8466 -17.9685
lfingers 7.12502
lthumb 5.52248 11.9396
rfemur 0 0 0
rtibia 0
rfoot 0 0
rtoes 0
lfemur -6.02588 -4.52585 -13.5369
ltibia 22.6825
lfoot -24.3227 16.34
ltoes -54.0433
544
root -0.40509 18.7185 5.59382 2.80208 -2.04877 -1.62197
lowerback 4.18331 2.04684 -3.945
upperback -2.21589 2.52025 0.645716
thorax -4.84677 1.38786 2.66781
lowerneck -14.3149 -3.39396 -2.67925
upperneck 10.3027 -4.81512 5.72405
head 5.66188 -2.02654 1.80414
rclavicle 1.24007e-014 5.96354e-015
rhumerus 2.08023 7.71095 -50.7159
rradius 100.008
rwrist -30.1903
rhand -16.8532 -51.3178
rfingers 7.12502
rthumb 9.37697 -81.0892
lclavicle 1.24007e-014 5.96354e-015
lhumerus 11.6224 -8.3372 51.124
lradius 93.7698
lwrist 52.4437
lhand -20.9663 -17.9876
lfingers 7.12502
lthumb 5.40688 11.9234
rfemur 0 0 0
rtibia 0
rfoot 0 0
rtoes 0
lfemur -6.04148 -4.52035 -13.5313
ltibia 22.6745
lfoot -24.3238 16.3596
ltoes -54.0267
545
root -0.406629 18.7182 5.59439 2.80472 -2.03756 -1.63301
lowerback 4.15653 2.04392 -3.91603
upperback -2.20273 2.51884 0.633084
thorax -4.81562 1.38526 2.63977
lowerneck -14.2826 -3.38407 -2.68413
upperneck 10.2396 -4.80044 5.74211
head 5.63662 -2.01982 1.8126
rclavicle 8.11911e-015 -5.36719e-015
rhumerus 2.0129 7.48841 -50.5753
rradius 99.8247
rwrist -29.846
rhand -16.6313 -51.7595
rfingers 7.12502
rthumb 9.5911 -81.5212
lclavicle 8.11911e-015 -5.36719e-015
lhumerus 11.5888 -8.51268 51.166
lradius 94.0254
lwrist 52.5536
lhand -21.144 -18.0681
lfingers 7.12502
lthumb 5.23535 11.8472
rfemur 0 0 0
rtibia 0
rfoot 0 0
rtoes 0
lfemur -6.04667 -4.53599 -13.5145
ltibia 22.6666
lfoot -24.2743 16.4135
ltoes -54.0079
546
root -0.408022 18.7186 5.59481 2.81806 -2.02279 -1.63124
lowerback 4.15616 2.03694 -3.8905
upperback -2.21874 2.50998 0.613011
thorax -4.82927 1.38017 2.6051
lowerneck -14.2615 -3.379 -2.67505
upperneck 10.2314 -4.79552 5.74354
head 5.63016 -2.01747 1.81233
rclavicle -1.40128e-014 -1.13307e-014
rhumerus 1.91957 7.32409 -50.4346
rradius 99.6549
rwrist -29.6708
rhand -16.7183 -52.0827
rfingers 7.12502
rthumb 9.50713 -81.8483
lclavicle -1.40128e-014 -1.13307e-014
lhumerus 11.5856 -8.65145 51.294
lradius 94.2071
lwrist 52.543
lhand -21.1918 -17.9601
lfingers 7.12502
lthumb 5.18918 11.9564
rfemur 0 0 0
rtibia 0
rfoot 0 0
rtoes 0
lfemur -6.06303 -4.53854 -13.5098
ltibia 22.6613
lfoot -24.2423 16.4158
ltoes -54.0474
547
root -0.410055 18.7188 5.59354 2.84434 -1.99494 -1.63885
lowerback 4.13991 2.02064 -3.86557
upperback -2.22866 2.48966 0.599502
thorax -4.82698 1.36918 2.57928
lowerneck -14.2464 -3.37374 -2.68065
upperneck 10.2198 -4.78987 5.76477
head 5.62448 -2.01382 1.82069
rclavicle 2.53621e-014 -7.95139e-016
rhumerus 1.82129 7.18566 -50.2974
rradius 99.4238
rwrist -29.5583
rhand -17.1187 -51.849
rfingers 7.12502
rthumb 9.12084 -81.6318
lclavicle 2.53621e-014 -7.95139e-016
lhumerus 11.573 -8.83039 51.3619
lradius 94.4053
lwrist 52.6391
lhand -21.3556 -17.8857
lfingers 7.12502
lthumb 5.03104 12.0346
rfemur 0 0 0
rtibia 0
rfoot 0 0
rtoes 0
lfemur -6.1023 -4.48558 -13.4826
ltibia 22.656
lfoot -24.2099 16.3533
ltoes -54.1313
548
root -0.413007 18.7189 5.5927 2.84386 -1.96979 -1.6579
lowerback 4.12312 2.01256 -3.85607
upperback -2.21097 2.48038 0.599957
thorax -4.79777 1.36351 2.57619
lowerneck -14.2481 -3.37387 -2.68073
upperneck 10.1918 -4.79033 5.77799
head 5.61637 -2.01348 1.82488
rclavicle 1.52785e-014 9.14409e-015
rhumerus 1.72934 6.9962 -50.133
rradius 99.1606
rwrist -29.4161
rhand -17.2174 -51.4557
rfingers 7.12502
rthumb 9.02557 -81.2426
lclavicle 1.52785e-014 9.14409e-015
lhumerus 11.5323 -9.09058 51.334
lradius 94.6656
lwrist 52.9518
lhand -21.6838 -17.8755
lfingers 7.12502
lthumb 4.71408 12.052
rfemur 0 0 0
rtibia 0
rfoot 0 0
rtoes 0
lfemur -6.10503 -4.45982 -13.4421
ltibia 22.6434
lfoot -24.1779 16.3118
ltoes -54.136
549
root -0.415573 18.7189 5.59412 2.81874 -1.95646 -1.63302
lowerback 4.12847 2.01533 -3.90168
upperback -2.1967 2.4811 0.59607
thorax -4.78796 1.36483 2.59775
lowerneck -14.2676 -3.38151 -2.69557
upperneck 10.1885 -4.79998 5.79806
head 5.61991 -2.01697 1.83248
rclavicle -1.08089e-015 3.97569e-016
rhumerus 1.59143 6.81019 -49.9532
rradius 99.004
rwrist -29.3971
rhand -17.3277 -51.1929
rfingers 7.12502
rthumb 8.91916 -80.9843
lclavicle -1.08089e-015 3.97569e-016
lhumerus 11.4493 -9.37077 51.3121
lradius 94.915
lwrist 53.1876
lhand -21.871 -17.8711
lfingers 7.12502
lthumb 4.53333 12.0604
rfemur 0 0 0
rtibia 0
rfoot 0 0
rtoes 0
lfemur -6.06364 -4.48791 -13.4628
ltibia 22.6259
lfoot -24.1973 16.3014
ltoes -54.0882
